<svg width="200" height="50" viewBox="0 0 200 50" fill="none" xmlns="http://www.w3.org/2000/svg">
<path fill-rule="evenodd" clip-rule="evenodd" d="M96.4018 23.949C97.554 23.949 98.6128 24.0422 99.4225 24.3536C101.135 25.008 102.225 26.4715 102.225 28.5889C102.225 30.6759 101.073 32.264 99.3603 32.9178C98.5504 33.2292 97.4607 33.3538 95.9969 33.3538H85.4707V18.5303H101.011V21.9557H89.9862V23.949H96.4018ZM96.1525 29.6169C96.5885 29.6169 96.9311 29.5855 97.1803 29.4923C97.7097 29.3055 97.9276 28.838 97.9276 28.402C97.9276 28.2375 97.901 28.0858 97.8476 27.9511C97.8157 27.8707 97.7742 27.7961 97.7232 27.728C97.6337 27.6093 97.515 27.5108 97.3671 27.4368C97.3219 27.4144 97.2746 27.3942 97.2255 27.3766C97.1466 27.3484 97.0626 27.3266 96.9737 27.309C96.7361 27.2621 96.4625 27.2499 96.1525 27.2499H89.9862V29.6169H96.1525ZM108.284 18.5303H114.886L120.959 33.3538H115.883L115.011 31.2051H108.16L107.319 33.3538H102.212L108.284 18.5303ZM111.43 21.9557L109.281 27.9351H113.921L111.772 21.9557H111.43ZM126.772 27.8419V33.3538H122.256V18.5303H126.772V23.949H134.028V18.5303H138.544V33.3538H134.028V27.8419H126.772ZM145.691 33.3538V27.7482H146.937L152.324 33.3538H158.335L150.83 25.6309L158.055 18.5303H152.387L146.937 24.105H145.691V18.5303H141.175V33.3538H145.691Z" fill="#333333"/>
<path d="M41 9H77V27.1054C77 31.7468 74.524 36.0358 70.5046 38.3568L59 45L47.4955 38.3568C43.476 36.0358 41 31.7468 41 27.1054V9Z" fill="#FFDD2D"/>
<path fill-rule="evenodd" clip-rule="evenodd" d="M50.8804 18.5303V24.1614C51.6504 23.2919 53.0505 22.7034 54.6513 22.7034H56.3909V29.2495C56.3909 30.9911 55.9177 32.5155 55.2156 33.354H62.7825C62.0819 32.5147 61.6098 30.9922 61.6098 29.2529V22.7034H63.3495C64.9503 22.7034 66.3503 23.2919 67.1204 24.1614V18.5303H50.8804Z" fill="#333333"/>
</svg>
