<svg width="71" height="64" viewBox="0 0 71 64" fill="none" xmlns="http://www.w3.org/2000/svg">
<path fill-rule="evenodd" clip-rule="evenodd" d="M70.1754 32C70.1754 49.6732 54.4662 64 35.0877 64C15.7092 64 0 49.6732 0 32C0 14.3268 15.7092 0 35.0877 0C54.4662 0 70.1754 14.3268 70.1754 32ZM46.4064 50.2418V13.7188H36.3265C26.5768 13.7188 20.759 18.1364 20.759 25.5344C20.759 31.3518 24.0226 34.6746 28.9243 37.8768L29.0068 37.9294L28.9491 38.0048L19.9173 50.2756H27.2781L37.3746 36.5146L33.9169 34.3886C29.5638 31.6942 27.4925 29.6284 27.4925 25.158C27.4925 20.9888 30.8099 18.4976 36.3636 18.4976H39.4952H39.5985V18.5918V50.2418H46.4064Z" fill="white"/>
</svg>
