<svg width="60" height="60" viewBox="0 0 60 60" fill="none" xmlns="http://www.w3.org/2000/svg">
<path fill-rule="evenodd" clip-rule="evenodd" d="M59.9862 30.9179C59.4794 47.4787 45.6435 60.493 29.0827 59.9862C12.5219 59.4795 -0.492489 45.6435 0.0142868 29.0827C0.521062 12.5219 14.3571 -0.492467 30.9178 0.0143082C47.4786 0.521084 60.493 14.3571 59.9862 30.9179ZM39.15 47.3899L40.1973 13.1656L31.5831 12.902C23.2509 12.647 18.1524 16.6346 17.9403 23.5669C17.7735 29.0182 20.4673 32.2171 24.5646 35.346L24.6335 35.3975L24.582 35.4666L16.5115 46.729L22.8021 46.9215L31.8251 34.2905L28.9311 32.208C25.2883 29.5693 23.5773 27.5792 23.7055 23.3903C23.8251 19.4835 26.7315 17.236 31.4779 17.3812L34.154 17.4631L34.2423 17.4658L34.2396 17.5538L33.332 47.2119L39.15 47.3899Z" fill="white"/>
</svg>
